<mxfile host="Electron" agent="Mozilla/5.0 (Windows NT 10.0; Win64; x64) AppleWebKit/537.36 (KHTML, like Gecko) draw.io/27.0.2 Chrome/134.0.6998.205 Electron/35.3.0 Safari/537.36" version="27.0.2">
  <diagram name="Page-1" id="UNFBgXyYSNGovIWBiyTv">
    <mxGraphModel dx="1426" dy="849" grid="1" gridSize="10" guides="1" tooltips="1" connect="1" arrows="1" fold="1" page="1" pageScale="1" pageWidth="1100" pageHeight="850" math="0" shadow="0">
      <root>
        <mxCell id="0" />
        <mxCell id="1" parent="0" />
        <mxCell id="AgqisVmrNdWKEEYQ5JYg-1" value="" style="shape=image;verticalLabelPosition=bottom;labelBackgroundColor=default;verticalAlign=top;aspect=fixed;imageAspect=0;image=data:image/png,iVBORw0KGgoAAAANSUhEUgAAApUAAAHaCAYAAABRt7KDAAAAAXNSR0IArs4c6QAAAARnQU1BAACxjwv8YQUAAAAJcEhZcwAADsMAAA7DAcdvqGQAAE75SURBVHhe7d0NcBznfef535ACRWctyps6Lzcny5TtGb6YnqSOy5wNeCuyIpkVIDgG8lqjKl0F4Z1uMRVvnT24OupWkcmwKDvaEu+CsWsrWUDLO5mp6KomKourQoCEEiOr6gxYF4Z7MUxD5MzKUhRdjsomkig7pghAc8/z9NMzPW/AAANyBsD3w3Sm++mnX2ZG8Pzwf7oHsfmfvlI0ZPkH81h0Uzhf79FqNA8AAIC1KRaL+bn68/Ue3TT3D//JpUGbCaPBsdF85aN7cMI2AAAArF1hWLTC2UZBMjrvQqXNg/b/RUNj/WW3WNEefQQAAMDaYnNcGBBD0cBY+VgOkcGyD5R2uvYTGyprQ+T777/v2+Tmw/bw0U6f/IUDuvD//GmpbaU+9V/9in7wH//EL63MauzDWo/74bVpjNdmcbzGjfHaNMZr0xivcWO8No3d6P1EA2P4GE67k/fo4g/OatOmSJgMp/d+XDB5sBwq7WRD5PvvVy5H15v/q1i2zJx7BAAAwNpl4mHwGAmMYYjctGlTxaP5v/L81XfzJhcG4TAMjwsL75tpobRsA6abt/9832CqrF4CAABgbbMBMXyMhsZNsU1ufvPm4DGcbJ+KUBlUJ22YfF/z8/PB48K8b69XrSxPln8AAADAGhHmOKscJt1DEBT9FAZIGyhv2nyTbrpps18OHu02sZ9euWT2F4TGMFDOzy/oscf/XbBHAAAAwPufMv+dum7qcsEyDJUuWP7DOxdLodKGybm5Oc2ZYHnif/v3GvnGqN8cAAAAG93wV9L6H//Vr2vLlq6KYOmqmTZQBlNQArWP9npKAAAAoFpw30350snwEslNdmVYqSxPXCAJAACAWuEN3QvvB+EyLFD6SmVYpTThshgESwAAAKBa5TcElYuSkeFvu6I8DwAAAFQrB8mwGBlkRxMqgw5hmCRUAgAAoBEXJt1U+XWTsSt/98OibbRfJTQ3N69rc3N677339Hv/7qmm7v6e+rP/oIvPZ7XpSsEsLRVGY3p/W1y77smo55d/zbcBAABgLbB3f//Gr9+rm2/e4u4At5P93kr3lULv/OcLdUPl74/+n0uGShsoYy8eUvdtb/uW5ky/8SEV73ySYAkAALCG2FD56//tr2nr1puDrxXq8l8rtGlz+e5vN5X+DKPbbkkvPzfSfKC8+WelvjPSz92pz/yXb+vCmW/4FQAAAFgrbFYMr6ssZUgzuRt1QtEVzdj07iuaK96k9z/4Menz35bu/D+krm1+bcTWD0v9L0j/9J+ruHmr3lm4Ve+/+7pfCQAAgOvBfin5X/zFX/ilWnad7bMc5bxYWZiMVCqXHyqvvr9Fb83/rK7t/1819/eXTMrskj75m36tt/WfmED5Z9KtCRXP3Kt3Xv2erhVvXuQYk0qbJxf+rUk7pSf9qgq232f1DXspZ+Eb+mw4v6jafX82ulHT+2mX6vPvoHPt+NcOAICN59y5c+r+7D+vGyxtm11n+yxHdYXSRjr7WFGpDNVrq2eTSaVbN/1Usff+Tgsf2utuwtE/3uPXGh/YLv03JlBu+4SKf/aAfvzO37lAubQeZfPlkx3t9c2NxL+i7xa/q6+Yw1eEzbqi+57QpzIJxcLUWrGfTlU+/3xWyvzGN9SeHFf1Oq+J1w4AgI3ln/2zf6bp7/5fNcEyDJR2ne2zHEGGqi1GVlxTuVw3b3pP2za/q9hLD2nu/53Wwt9MS5+4X9r9L02g9BXKWz7uAqU++a/0MwfHpZs+YO8BV1dszu+lnXo1apJZz9hpE5HWnvhXvqqhqZz+mOogAABooDpYthIoLRsZqwOlfXShcqUWipvNtElXry3op9//97o2/Yj0Jwelty9Kv3rWBMqPlQKlfu6X9O6LDyk2/xN96Ka3dVNsBX9f3A2xhsPWl3yjFVbN7GOfxjSlTML0qz9uXin+q0r1jOm061pZfZtMR4aao/uqOI9vRLYJtk+nP2vWpV1Qrb8Pf5zJ8n7sqsI37HbhfpebFGuPHT3P8BiB2uPXXgYQbuf3VbF/2179Ovt9hrupu4+CvvHZsK3RZQ0AAGC1RYNlK4Hy2fHn/VytlkLltWKX/m7+v9DV4gfc8k/f/4De/8//UfrsN0tD3mGgfOdMWpt/5sO6peuq3l24xQXSxnxYqQgkJrQkMvrURJCKv6WcCTXVejVanNBQOES85Lj54npHwxRu9jn2tXJwXPQ8pvSDT37LrBs1Z9NoH5Z5jl+TvmXXTQxprC+m3zB7c33N8lTmhH/ejRW+8TWN9aT0q6Uh5+ixK8+zmM/qB32R0Bc9fjCOHnl+OaXCSwQmpK+VNgr3b9ct9jo32MfkCWU+NeG3b+KyBgAA0FEO9t/j52q1FCpttXFr7KduskPaxS3/WAt9Z6Vbd9UEyps/epc+eOcJvXf7v9C8CaM2kDYWve4xCGcqXNIPerI67IOIG/oNZldBjz6Z8LNRk2kfbG1VzlvyPHqUKqe8+vtwzHP81lfkevYOuIBW2s4t/0CXSgEwqhy4E5lPaeK7fh9OZB/2PM1eBsLgFv+Kvjo0pR/m/XL0+NF1brtIqO8b01Rpo6rn1kijfSQ+qZ6xvhVUYQEAQCuiQ97RofDV1FKotNdFbrvpXTfZIe1/9Av/gzT3Uy2c+Rea+8f7NbfpFr3zp0PavOUfacvPxvXj7x7Ve68E9bfl3bx+HRX+WLmpT2lndVayw7d90oQLtnlle3z7cqzGPmrUCdwtK+jSD/ysM+TP2U8rKinW2Ye7mcdWd3/DhU2GvwEAuP6qr6GsvsZytbQUKktiN6lr969ryzt/qYVn79S7r35Xb//f39TbzxzU3I/+WF35f6+3vn1QP/3LoFbnqpubrrr5psV36lNTGZ3wQcQN/QazLQiHiOuEs/wPNdXzSbkCpguernV559FoHzeCPU9zZsG1ooYJuF8bi1QuNaVceIePOze/zm9XHvJegSX2Ef/Kd5U3CfsH9UuxAABglTS6Ked6BMsWQ6WvN9rvprzpH+mmf7JPcx/5Nd2073/RzZ/oV9eHPqZbu/+15j/5FW36J/t1yy9/Qx/8p5/ULZvfLW9bV2To1EzBcGmvRv21h7btN5RS/eHvXg0M+e3rlsKi+/6aPplvcG1f72FllVHC9vuNH+pTpSpjs+dhNNzHjRDc2f4Df54xd41jNDz36FM/DCqGsYpgHWxnXiT/Gpmp7uu42OvcYB+lSwGCofuv8v1DAABcV/v3768JlKEwWNo+qyH21pszxYWFBc3PL2hufk7Xrs3p6tX39MTJ3JJ/+/t/f/hz+u8/9qL08/+zinPvqviJB/TuX35LN8cPav7vfqib/78zmt/9m3r3zzLavG2Htv3XX1Hxr/5EP770rJ75q5/Xg//mO35Pa5gd4k78UF9dtaHoG2FSaReo+V5JAADQPPu3v++/r6/0t7/Dv/+9efOm1iqVuz8/rOk3PqTiD39fVz8Q13vvvKFrr7+g+b/+jj6wRbry9t+776/8wM//S/edlsWf/I1+/J//Sn/+xi3ac2DY72VtmzyRKQ9xAwAAbFAtVSqtqT/7D5p97puav/JX7oYMy97A876C77C07ED3zZuu6r3iBxS75WP61IF/pZ5f/jW3bu2x37WYUKZ0faS9IWUtVSktKpUAAGD5FqtUthwqAQAAsDFct+FvAAAAwCJUAgAAoGWESgAAALSMUAkAAICWESoBAADQMkIlAAAAWkaoBAAAQMsW/Z7KY8cf990AAACw0R07+hDfUwkAAIDWPDv+vJ+rRagEAABAUw723+PnahEqAQAA0DJCJQAAAFpGqAQAAEDLCJUAAABoGaESAAAALSNUAgAAoGWESgAAALSMUAkAAICWbeg/03j58mU/h2Zt377dzwEAgI1msT/TuOFD5c6dO/0SlnLp0iVCJQAAG9gNDZVrrfpHqGyeDZVrFWEYAIDW3fBQuVY+wKlULs9arVSupf8mAQDoZIuFSm7UAQAAQMsIlQAAAGgZoRIAAAAtI1QuVyGrnlhMsdKU1qRfdcPYc+jJqlA9DwAA0CbtCZWv/J4+/6EP6UORKfOcX7cYu93nf0+v+MW26R5RvlhU0U4TUl87Q108o6mpjOJ+sSPUe5+afe+i/Trl/QYAAM6z48/7uVrtq1T+4u/o/Ntv6207nf8dXbivyWDZaXoHNDQ9q7yvGGbTkeplRVUz0taTVronbI8pHZY6K/r3KGuTas1+C8oODmt6elgJ06/nq49UVi2rt3fNPb7NTO0KwB//kp577kv6uF9sqNl+AADghjvYf4+fq9UZw982SNhg+XhQlXrl9z4fqWJ+Xr8XlK30e+nf0p//+W9pn2n/vGms3+/GKmQf1Vj3HiXsggl6swO2gjmqXhP/0olhJSeCimZ+ZEZ9YXqcntGeU2Glc0hjfTYs2v6zOhJWQPMp5QZ9AKzYb1yZUyPq9tXSqUMfdrtUo+1N0BwcTmrCt08kTQD2W9xQYdXRPWaU+XxYoTbva2k+0m+p95sKJgAAHaVzrqn8eEJ7//yS/pOd/dJzQQXTTn+0V7/1TZs2Pq4vjf6OftFXOJ/70scb9LsBfJXQVv4SuZTy4fCzCXqHe10PkzYvaiayHO9PqXvstIl+RndK/eF4ta10akYXz5r+GlNfWFE0gXTaVkBtn+h+G7HHq7d9fJeSrj2olPaO2mDaZn9+QTtH7Xt2SE/el5bCef9LRaDq/f6VP1H6t/bqj/z7/Ud7g/9WAABAZ+jMG3VstSqsSN33pHQhX78q1Wy/1Ra9pnI1r2eM7tdNywyAdbfv1aibH9BpFzj9MHw7/eK9+hU7vv2JnSY0RubdygbsLx16Uvd9KCP7q8Pns1l9PlgDAAA6QOeEylfyuvCLO/UJGxT3PaN7z/sK5PnfqR82mu3XLrZCOD2sEz7BFcZzmh4aqA2Jk6c1ZiuXd1f2X1JYxQxVHa+kkFXaXVxpw2VeI90zutiWiypb9XllXZXyV/XH7heJIFwCAIDO0CGh8jll9v2W9j7kb9AIq1fGK3/yjP48mA34IXJnsX5tZ0JcfkQzfcFwdMJe1zjqI2Vk+DzWJ024amdlfzc1uqkmntGRoWCou+fJv/WNDbY3YVPDCd+WUC51SpmOulV8CeH7bX6JyLiLZm24PK/f+cULynNRJQAAHaN9odLfgBHcePG4dp5/W1k7nvnxL+mhveV16Ut7yxVIu+6QHQL9kD7/J7/SuN/11OgrfOq127aKoWivYpg60l7R30x2fw2O1zsa9Jn62tfL6+ttb8NmpG3qRiXKivd3hVXFivf7Fum39vn97dMz947qS/4XCgAA0H6xt96cKS4sLGh+fkFz83O6dm1OV6++pydO5nTs+OO+W/MuX76s7du3+6XOZs91586dfukGsV/7MyidqhMUO92lS5fWzHsbtZb+mwQAoJMdO/qQ7r+vT1u33qwtW7rc1NXVpc2bN3XojTrrWYPKIwAAwFpGqAQAAEDLCJUAAABo2apdU2mvW1uLbvg1lWuYvaYSAACsDyu532CxaypXNVQS0AAAADrfSm++5UYdAAAAXFeESgAAALSMUAkAAICWESoBAADQlGfHn/dztQiVAAAAaMrB/nv8XC1CJQAAAFpGqAQAAEDLCJUAAABoGaESAAAALeMv6mDdiD38sp8DAGBjKj62288t7nr8RR1CJdYNGyqb/WECAGC9Wc7nIH+mEQAAAB2JUAkAAICWESqxLsViMT8HAABuBEIlAAAAWkaoXEohq56erAp+cUnL7Q8AALAOrIFQWVC2J6ZYM0Gt2UBH8AMAAFhVnR8qC+PKacj8y2l8qRQYz2hqKqO4XwQAAMCN0ZZQmY7F1JP1CdFWDWM9CherFcZzUuqwBpLTypVS5WT9fZwtVyAL2R53s4abmqxKVmxTcU6zOmGrpdXt7rj1+ntLPDcAAID1oi2hcjQ/Ig2fMNGwoOxgTqn8lDJ1y4sFuUzZH1fvwJCmc+M+HPbW38cOt9KFucHhpCaKRRXNNJGcVd6vWkw8M+X6u2kiaXY/GayYntGeU0G7O+ygDakm2CZmdSTsn08p59oBAAA2nvYMf8czOjUyo75YQrnUqVKgjFYKXRXSDX2nZDKlyZEDGpqODIE32IcT36Wkxsy6tIl+ZtPRURNDmxCtPPaNSTMXg5DY7c/BiPen1D1tQmrhombcMXz/xLCmbXvQLWCH44uNAjMAAMD60bZrKuO7kn6uLFopnDJJzA59T08PK+GCW5+JcNEh8Pr7CPRq1O1nQKfdtkG4XJQNlAlb8QwrjyPq9qsa6h5R3p9vMDUZXgEAANagZ8ef93O12hQqJ5XukyaKE0oODza45tAOfU9raCIS2iaiQ+CL7MMExLRrsOEyr5HuGV2se4wqkYqkC7TBbAXXPjSgXlsNNYE3HCGvi2sqAQDAOnKw/x4/V6tNN+rYNGireib02WsXE3UqiW7oe0SHo6W/0hC4vVFnkX2YwGcagmHpesPjVqkC6iuZ8YyOJMttg7PJcqUy0jeRSyk/ak8quK5zpi/ch5n4miIAALBBxd56c6a4sLCg+fkFzc3P6dq1OV29+p6eOJnTseOP+25Lu3z5snbu3OmXgBsv9vDLKj62O5g3Id9WtwEA2Ciin4NLuXTpkrZv3+6Xmnfs6EO6/74+bd16s7Zs6XJTV1eXNm/e1L5rKgEAALB+ECqxLlGlBADgxiJUAgAAoGVcU4l1w15LAgDARtbOayoJlQAAABsMN+oAAACgIxEqAQAA0DJCJQAAAFpGqAQAAEDLCJUAAABoGXd/Y9145JFH/BwAABvT17/+dT+3OL5SCFiEDZXN/jABALDeLOdzkK8UAgAAQEciVAIAAKBlhEoAAAA05dnx5/1cLUIlAAAAmnKw/x4/V6stobKnJ6uCn29oMq1YLOam9KRv61SFbHPPKbTc/gAAAB2uQyuVk0r3zWgkX1SxWNRoYqkQVlC2xwTQZoJas4GO4AcAANC0zgyVhYuaUVK74n55KYVx5TRk/uU0vlQKjGc0NZVRs7sGAADA0tobKm010A9xx2I9yrpAOKl0YljTGlOfbe/5qh4ZNMvTw0qY5Z6gU4XCeE5KHdZAclq5Uqo0+4n2d8cyxzhbrkAWsj2lIfamqpxGxTalc7ZmdcJWS6vb6z7HiPC8mjk4AABAh2pjqLThcVZHisEQdzGfUm7QBrtejeZH1N09orxtn/qavn6qvDyVqa4xFuQyZX9cvQNDms6N+3AY7EfDJ8yRCsoO5pTKTymzw610YW5wOKkJf/yJ5KzyftVi4pmp4HztNJE0u/cXfE7PaM+poN0d1j2XRs8RAABgfWlfqHRD3L4aaSdbnZxuLthVcEPfKZlMaXLkgIamI0Pg8YxOjcyYYySUS51SRR6N71LSHT9top/ZdHTUxNAmRCuPfWPSzMUgJHb7czDi/Sl12+fSzHO0w/FFE3YZjwcAAGtYe4e/w2pkaWoy2EXYoe9waDwW6zMRLjoEbrNj0s9V69WoO+aATrttg3C5KBsoE7bi6c/XVlT9qoZW4TkCAAB0uvaFSlspNGEwHD1eUt0qph36ntbQRCS0TUSHwO1d5NJEcULJ4cHK6xZNQEy7Bhsu8xrpntHF6PpGIhVJF2iD2QqufWhAvc08R66pBAAA60AbK5XBNY8zfX5o2E6NbpaJZ3RkKBhGrrhRxw19j+hwtPRXGgK3N+rYRGkrg+ZY9vrHRKQaaQKfafDHrjM8bpUqoHYy29rzSJbbBmeT5UplpG8il1J+1J7UMp4jAADAGhZ7682Z4sLCgubnFzQ3P6dr1+Z09ep7euJkTseOP+67Le3y5cvauXOnXwJuvEceeURf//rX/RIAABvLcj4HL126pO3bt/ul5h07+pDuv69PW7ferC1butzU1dWlzZs3tfmaSgAAAKwLhEoAAAC0jFAJAACAlnFNJdYNey0JAAAbWTuvqSRUAgAAbDDcqAMAAICORKgEAABAU54df97P1SJUAgAAoCkH++/xc7UIlQAAAGgZoRIAAAAt4+5vrBt8pRAAYKPjK4WAVcDf/gYAbGT87W8AAACseYRKAAAAtIxQCQAAgJYRKgEAANCyzg+Vhax6erIq+MU1ZbnnvpafKwAA2NDaHypbCVJLbltQtiemWDP7b/Y8CH4AAAA12h8q4xlNTWUU94urqjCunIbMv5zGl0qB1/M8AAAA1rm2hEpb6cumY4rF0pqMVv7sfMy2+ylSERx3/YMpPWlbCsoODmt6elgJ09aTrU2NhfGclDqsgeS0cqVUOal0tL87Zo+yZ8vnUcj21D2HxVRsY/dX2mhWJ2y1tLq94rlG+3vheTVzcAAAgDZrT6XSBMHZgaKKxVH1+iYX9hLDSk7YdjPlR9Tt15T7m2liSGOP2qAXV+aU6dM9orxpn8pU1xgLcpmyP67egSFN58Z9OOzVqNm3hk+YI9pgmlMqP6XMDrfShbnB4aQm7LHMNJGcVd6vWkw8MxWcnzvHpNm9S77m3Ge051TQ7g47aM/dPtdZHQn751PKuXYAAIC1qT2h0gTBw+U0GShc1Ey9divanthTDpuLcUPfKZlMaXLkgIamI0Pg8YxOjcyoL5ZQLnVKFXk0vktJjZl1aRP9zKaj0eC7iGjlsW9MmrkYhMRufw5GvD+l7mkTUu1zdcfw/U2YnrbtQbeAHY4vmrDLeDwAAFgD2n9NZSg/q2k/uxrs0Hc4NB6L9ZkIFx0Ct9kx6eeq9WrUVRAHdNptG4TLRdlAmbAVz7DyGKmyNuIrrKXqZkXVFgAAYG3pnFBZXU1sVnWFz7FD39MaCofS7TQRHQKfVLpPmihOKDk8WHndogmIaddgw2VeI90zutjMOUUqki7QBrMVXPvQgHptNdQE3nCEvC6uqQQAAB3m2fHn/VytzgmVNsTZaxETkSFhv6aheEZHhoJh5IobddzQd9VQeim02ht1bKK0lcHwmJFqpAl8piE4h3rD41apAuormfY8kuW2wdlkxfWgYXsil1J+1J5UcF3nTF+4DzM1eUMQAABAuxzsv8fP1Yq99eZMcWFhQfPzC5qbn9O1a3O6evU9PXEyp2PHH/fdlnb58mXt3LnTL62CybRipwdUdCEMWNojjzyir3/9634JAICNZTmfg5cuXdL27dv9UvOOHX1I99/Xp61bb9aWLV1u6urq0ubNmzqpUmlzZKRy54qJBEoAAIC1oKNCZe9o5BpIblwBAABYMzoqVAIAAGBt6txrKoFlsteSAACwkbXzmkpCJQAAwAaz7m/UAQAAwNpEqAQAAEDLCJUAAABoGaESAAAALSNUAgAAoGWESgAAALSMUAkAAICWESoBAADQMkIlAAAAWkaoBAAAQMsIlQAAAGjKs+PP+7lahEoAAAA05WD/PX6uFqESAAAALSNUAgAAoGWESgAAALSMUAkAAICWESoBAADQMkIlAAAAWkaoBAAAQMsIlQAAAGgZoRIAAAAtI1QCAACgZYRKAAAAtIxQCQAAgJYRKgEAANAyQiUAAABaRqgEAABAywiVAAAAaBmhEgAAAE15dvx5P1eLUAkAAICmHOy/x8/VIlQCAACgZYRKAAAAtIxQCQAAgJatnVBZyKonFlOsJ6uCb2rKZFoxu1160jegI9j3c6XvpZnWzNvZ7PNcyeuxwRWyPerJ8ooBQKdoT6jsiKA3qbQLKGkz16pl7KteeGg1UDS9fUHZniCUVU81H87uPYo+H/scm3ytrktAMsfvm9FIvqhisajRXt/cbms1DK7V846I70pqejbvl4x18JwAYC1j+HtDiSszFYSyYn5E3d0jytt5M01l4r6P1zuqiaExPerDZiH7qDQxqrZlucJFzSipXVWn2XbxjKamMuaVxQ3XO6ChsdPN/aIDALjuOitU2krDUhW06WElwvXRqkRkaLRmXR2T6T6Nubkx9bltfBWuwX4m08FyeD526C1cf7Levtxz6dFyR+dK+40cu/J1aX6fFftabLsG++8dnVByeFDZyawGcykdrpMoa8+3oOzgsKb9+9STPeuqo+WitK14mmO85hetJZ+f2SZh9hm+vvY4Fdv49862mXVZ917VVlVrztX1Tysdqd6WzrPhOYVVad//ZHBMu7rp19up2s+LQeu4/+/MtflzqbvfOs+18fGrjjVZ/R6ZjvWe71LH8M97UQ1fxyoV/Zrct/kVZ8D84nPavU61z2mx16207+plAMCKdVaotFUfXzkrFvMa6bYZ0oSa6P/i++paPlipQbvSfjD0jZlV+WDbiaHyugZsYDK9jCFNuOONqneR/fSOFhUs2vOZ1Inh6eBcpjJ6sN6+3PIymeMPDif9PszxkrPK20CQmNUR31bMp5QbbO5DMJ6ZCrax00RSwyfCxBS12P57dXhEGu7LKXWqTjWu7vnGlTlVroJOZe5W5siQxoJPfnO40xobOqLMjmBx8eOHejUaraxO7dIJEzKTE8E2+ZEZ9YUJzLxfswO2veo9qHuuxvSM9pwK2uz7PdZnw1Ojc7KXD/TJ7CRoN9PonW7vTnOvt9VgP6Vzt9ubc3k0eB0a7rfqudbvV+dYvdXvUb7xexA9RqPXsKFm/9u1/crvp6ui+zVLSezp1sxF9ypVPaf4Mt4PAMBq6Ljh73J1ISGb2xqx11NZ9pqqwnhOtuv0cCLY1gTDcN1yLLWf3lEbdKc1nLCVSRMgFxv2dAF5StWjyouK71LSVeOCqlDvqP0gt8O+YQXUTLZiN73Uh7lnQ3K4nX0uMxdrP9CX2H/4OtdV73yDNZUiw5STp80rNxDptZLnZ7cx4SGsnMb7U+oOh0Ej7RUanWt3Sv3he2TP05zNxbMNzqkwrpwa7N9q5vW2Gu0neu6JPeVg1Wi/1c+1Xr+lztla7D2IHqPZ9zvU7Htb9X4uh33vlRtv8Do3+X4AAFZFR4VKGygTJkmGlUJbGVyOUoUxnFZ4N0fj/eQ1u0jQbV2vRt0xB3TafRgGH972g91V6ErTEh/mlv1ATeSU8je2LFr9abj/SaVtkctWeepWmBqcb41wmHJSp8eGFM2Uzkqe37I1e67ecs9pOa/3cjS731aP39TzXeZraDWz3/ys+2VuReL9SpnYPF79H+f1ej8AAA11VKjMVyS2gi7O+Nk6bMXLslWvUtVy+MTSH3KLWGo/wXWYdojbDnePqW+xa7Hsh1q9a8hstWe68kPQVUiTuxQ326TdBvbD21ZFZ3RRtv+wVjRyF6nChVXYGu586u+/dHNO72GNqE6feucbPq+qilTv4RHN9PVpZuRwZahY5PgNVW3jntvQQG1Yiap3rtHrOi07NG9fs7sbnJMLMIucazOvt7XUfqo1u996/RY7VvgeNfseNHy/7RC7vzYzarH9up8PH0pthbjqZ6Ik2q+uuHYlp1UalIj+d9fodYv0WfT1BAAsS3tD5VhfMDRlJxPQEv7axGD4eVC5oFcl8yFlL8S3o1kamgi+WqZ31FciIkNtZqr5kKtgrxe0tYtwG/PB1XA/wc0m9phD7g5ov609Fxcs6+zLHaMe84Fsry1LlPefyKWUt0/EfAgrHHqPJZRLnVImbvvbQFbuX/cmBv+6BH3M8eMZHUmW2wZnkw0qNQ32P5l25xUMSQbXq8246w0j6p6vbTfHHgpei9J7YMNNd7dS4ad8SZPPr0LlNgl7nd9SVel652qv64y+brYq6y5paHRO4etQbg9vsHHPuanX21pkP9Wa3W/DfnWOZd/Eivco0dx70Oj9dhX8Vt5b089Ww8OfCTtM7tc0o3fAX7MbfU7j/fVfD9PnlL0Gt7odANCy2FtvzhQXFhY0P7+gufk5Xbs2p6tX39MTJ3M6dvxx321ply9f1s6dO/0SUMXeVf/oHndjU3X0aBtbBRuUTvGVQK2x7+3pgRVfblJj2fubVDp2WgPX5bIJAFifLl26pO3bt/ul5h07+pDuv69PW7ferC1butzU1dWlzZs3dd6NOlif3A06Rwhv61Hh4kzlzVcrEH5ll5tsxXhZAdVesxu59AIA0BZUKgEAADYYKpUAAADoSIRKAAAANOXZ8ef9XC1CJQAAAJpysP8eP1eLUAkAAICWESoBAADQMkIlAAAAWkaoBAAAQMsIlQAAAGgZoRIAAAAtI1QCAACgZYRKAAAAtIxQCQAAgJYRKgEAANAyQiUAAABaRqgEAABAywiVAAAAaBmhEgAAAC0jVAIAAKBlhEoAAAA05dnx5/1cLUIlAAAAmnKw/x4/V4tQCQAAgJYRKgEAANAyQiUAAABaRqgEAABAywiVAAAAaBmhEgAAAC0jVAIAAKBlhEoAAAC0jFAJAACAlhEqAQAA0DJCJQAAAFpGqAQAAEDLCJUAAABoGaESAAAALWtLqNy/f/+yJwAAAHSutlUqz5071/QEAACAzra+hr8LWfX0ZFXwix2n088PAABgEc+OP+/nanVsqHz99dfV29urP/3TP/UtnaGQ7VEsFitNPdk6EZHwCAAA1qGD/ff4uVodGSptoBwaGtInPvEJ/dIv/ZJvbT8bKBO5lPLFoopuyis1O14bHuMZTU1lFPeLAAAA613HhcpooDxx4oQ+8IEP+DW1KqqGkcrgeLpcSUxP+kZbPQz7xtJyzdGKolvv201LtiecD03qxLA0cioaFuPKjJplv5+sO67Zrma//riJYU277QAAANaXtoVKO6xth7dtiAwtJ1DasDY4nNSErxpOJGeVt+3Tw5od8JXEiSGNPWrD3aTSJtAlJ4L2/MiM+mzajO9ScjrYrjCeU3JIOu2SZF6z2qOEnQ0VLmqmO6X+RuXH0nFH1eubbBCNHreYH1G3XwMAALCetC1U2mFtGx5tiLRhclmB0rKBUGPq89XF3lEf5rpHdDhMdYk9QYhzgbDcHu9PqXvstNmuVwNDM7pYMDFyNqmBw3s0Y1Ol7Z/ctcjwta1k+upjWJGMHjdUdVwAAID1qm2h0oZGGx7DYLmsQOn0atRVKQd0OjqkvUwmd2o2P6nTM3uUiPcrNWPCZn5WyYGqJOiqmjmNuwQZV2aKyiMAAECorddURoPl8gKlUcgq7e68tuEyr5HuGV18LVhVwwXCYZ3wqdMOdU8PDbjKpq1a6tFHNZPqN1ExLrt4+rS0p2Ls2+rV4RFpeLB87eaSKoKoP24wCwAAsK60/UYdGyL/7b/9t25qOlBaJrBpOBEMQccSyqVOKbPDr6thgmd+RDN9wZB1wl6LORqOhZv9mKSX8hdL2sWxmT11r52MZ6aUT+WUcMc0U2LYbrjIMLk57kTSnGbQf3A2SWUTAACsS7G33pwpLiwsaH5+QXPzc7p2bU5Xr76nJ07mdOz4477b0i5fvqydO3f6pcXZP7u4nL+Us9z+AAAAaOzSpUvavn27X2resaMP6f77+rR1683asqXLTV1dXdq8eVP7KpXRv+u91AQAAIDO1pZKJQAAANpnXVUqAQAAsH4QKgEAANAyQiUAAABaRqgEAABAywiVAAAAaBmhEgAAAC0jVAIAAKApz44/7+dqESoBAADQlIP99/i5Wnz5OdaVb3/7234OAICN5Qtf+IKfW9r1+PJzQiXWFRsq+dOeAICN5ty5c20PlQx/AwAAoGWESgAAALSMUAkAAICWcU0l1hWuqcRG96Mf/cjPtd/HPvYxPwfgeuOaypUqZNXTk1XBL67Yau0HAABgg2tbqCxkexSLxUpTT7ZOtFtJ6JtMV+w3lp70KwAAAHC9tCVU2kCZyKWULxZVdFNeqdnx2vAYz2hqKqO4X1yKC6p90kRpv0VN6LSIlQAAANdXW0LliWFp5FQ0LMaVGTXLvjKZTdsqY1qT0UqlnQ+rj4lhTbvtogoaz5n95kfV61us3lG/HN3e7tutjai3vvp8Sv16VK+wCgAAsFG1JVTOdKfU36j8OD2s2QFbZYyGw0mlTZBMTvgKZH5E3X5NSWFcuemkdtXdb+X2+ZEZ9VUMiy+yvu75AAAAIKrNN+oUlO3x1cGwItk9osPV6a1w0QTROu3Vuvco4WcrVG0f70+peywyLL7Y+urj2iH54pQyzY7JAwAAbABtCZXJ6ZzGXYKMKzPVoPK4XPFdkf0CAADgRmpLqDw8Ig0PLuOu7qrAWBjP1bmmsjfYb6LyesnJtFl22w/rhF/hth8aKA9nL7U+imsqAQAAarQlVMYzU8qnckqEN8YkhqVU/yJ3efdqdCJpAmPQf3A2Wbey6fZrr4cM92umPtlwaLbPj2imL2hLDCc1MRqNjEutBwAAwGL4izpYV/iLOgCAjYi/qAMAAIA149nx5/1cLUIlAAAAmnKw/x4/V4tQCQAAgJYRKgEAANAybtTBumJv1AEAYCNq9406hEoAAIANhru/AQAA0JEIlQAAAGgZoRIAAAAtI1QCAACgZYRKAAAAtIxQCQAAgJbxlUJYN/iOSgDARtfsd1XyPZXAImyo3L9/v18CAGBjOXfuXFtDJcPfAAAAaBmhEgAAAC0jVAIAAKBlhEoAAAC0bG2GykJWPT1ZFfziqrge+8Ta8epJ3XvvSb3qF2vUW7/UNgAArDPPjj/v52q1LVQWsj2KxWKlqSdbJ84tN+jZ/vX2SWBEs1YSFAmXAIAN4mD/PX6uVltCpQ2UiVxK+WJRRTfllZodrw198YympjKK+8XFTSqdyCmVD/c5oeRs3q8DmnTHg3rmmQd1h19sykq2AQBgCd///vf9XK3F1rVLW0LliWFp5FQ0LMaVGTXLvqKYTdtKY1qT0QpjtAqZGNa0265aUrtKO+3V6GiveSwoO2j6Tw8r4aqXZ5XtiSk9GfRyYTTWo+xrftGqqHiadWHade2RZXS8V0/eqx07dgRTWE20lcWwbcfDesH19KJVx2i/O4/rvOtQR7iNfzz5cLjvHXo43HnFMe/VScqaAIBF/PjHP9Yf/MEf6MyZM76lzLbZdbZPJ2lLqJzpTqm/UfnRhL/ZAVtpHDWxMGSrkMNKTvgqZH5E3X5NWa8GhsbUZ4NgOTEaJrCeMv27R1xldCpztzJHhjR22veZPK2xoSPK7AgWg2PN6khYRc2nlBtk6HxNMkFu+PhuPfnaa3rNTE/uLuhHJkI+bALi7ieDthePvqxDpeQXVdnvtRePap9fs6jzx1U44Ld58gE99U0bUO2+CvqyP4/XXuzX+DDD5QCAxj74wQ/qt3/7t/Xcc89VBEs7b9vsOtunk7T5Rp2Cqxq6imBYkTTh73A5TQYKF00QrdNepXfUB8GB08E+K8JlRO+AhsZOm/hoM+WYhgYiO7bHkg+ndrJV0elZuYF0OxxfnFKmufF4tNsdH9duPaVDvhp512OP6a5XX9HL+44qfZfvcne/9j11prJaaVX1a1p0m4/FgyBq9+XOw1cqbdXzvA24AAA0Vh0sOzlQWm0JlcnpnMZdgowrM9Wo8tiC3lF3TWUYHGsFVc3Tk5M6PTakaKZ0fFUzuDbTTtGqKdaOu/SYqw4e0BkX6KqGum8kEzZfDCuVbjIB168CAKCRaLDs5EBptSVUHh6RhpczpBzfFQmiUmE8V3tNpb3eMVqZdNXNPUr4RYXVRq/XnMRMX59mRg5XBkZ3rGGdqJdGuaZybXn1pB52Fy/acPmiju57Wa/o49p9/rhGfbp89ey4zj9woDbg2Srn+XGd9WPUrl8wu3xuX+VjAgCwHGGw7ORAabUlVMYzU8qncu7GmXCIWan+Re7y7tXoRFLDiaD/4GyytrIZ71dqpi/Yn9tnTqnwZqB4Rkf89Zalrxmy/bu7zWGrj2qOlbeB0+/HTnwd0dpkwpyO3+lvjrlT4/0jevAOEzBfPKqXDwVD0Xfaay4fq1czNP2e3G02D/oNF3Y3d01lXZXHdBNfQQQAWAYbJjs5UFqxt96cKS4sLGh+fkFz83O6dm1OV6++pydO5nTs+OO+29IuX76snTt3+qU1YDKt2KN7lG/6K4vQ6b797W9r//79fgkAgI3l3Llz+sIXvuCXFnfp0iVt377dLzXv2NGHdP99fdq69WZt2dLlpq6uLm3evKndN+q0j7tB5wiBEgAAYDVs2FBp7xR3X2MJAACAlm3YUAkAAIDVs3GvqcS6Y6+pBABgI2vnNZWESgAAgA2GG3UAAADQkQiVAAAAaBmhEgAAAE15dvx5P1eLUAkAAICmHOy/x8/VIlQCAACgZdz9jXWDrxQCAGx0fKUQsAr4298AgI2Mv/0NAACANY9QCQAAgJYRKgEAANAyQiUAAABatj5CZSGrnp6sCn4RAAAAN1ZbQmVPLKaebCQCrvVQ2Oz5R/sRhNeOV0/q3ntP6lW/uOqu9/4bafa40X7tOlcAQMdrT6Wye0jJ3KCiuXLDiWc0NZVR3C+ig93xoJ555kHd4RdX3fXe/2paS+cKAGvc97//fT9Xa7F17dKm4e89OnwkqeETk37Zq67ehcvuMa10T0yxWEzpyYKypXnfV7M64dtisZ5yYLXburZIu99vNm3b0qo4i4p1wVQ6RsW+wu3MuQwOa3p6WAnTbiuwhWxPadvyuVT1++oj5edab79LnkfkOaIxW1nbsUM73HSvTtoSm6+2nXw4bN+hh18Iulf2N5OtyoXVuaa388dp1F6xn4f1wrL3bybb369ymt7WHC9o1Mnh4zp//rjuNO33mhN79eS9pW3Lz6Gq34kTwbm6VXX2u9h5AACa9uMf/1h/8Ad/oDNnzviWMttm19k+naR911T2jmpCfZFQuITpGe05VVRxYkhjfYNSOP+oD2bh+mJR+RFpeNC2TyqdmNUR02bbi/mUcq7d9h/W7IBtH1WvXY4qrTNT6Rh2X8NKTgTt+ZEZ9bmTjytzakTd3SPKm/apTFzxzFSwrds+DM9V/Q592B1KDfdr1D0PNO8FPXxnQV9+7TW9ZqcX+zU+7AORCUmFA779yQf01Ddtu+1/XLufDPsf1T63n4iG29U7TjPHf0x3uR17Kz0vq4ltXzz6sg65lHeHHhwx+9l3VC+a9mcevEN3PPhMsK3bfreOj9bpd9/PukMFr229/Rp1zwMAsBwf/OAH9du//dt67rnnKoKlnbdtdp3t00naeqNO7+ERzTQblLpT6rdjxYk9JphF5t1KI2wz4v0pdU/PKl+4qBmNqS+sAprwNm3bbScT7g7XpEkvui48ht1XpN0dY+y0r1ZWiVYe+8akmYuNn+Ni+613HpYdOi9OyeRXLObVV/SyntKhsJpmQtD58wX9yK4zISkdprmPxYOQZvtH2+tptF294zR7/KiVnpfVxLZ33N2vfU+dMZGwjmjl8dBT0suvNA6Di+233nkAAJatOlh2cqC02hoqbTg6lcrpxLhfvh5MMLOVwVLlsF5lcjXZQJnIKZX3x8uPlMMgbjwTcGyFrVSBq64MRv2ooPN+dtkaHWc5x2+klfNqlg2Ud46r/0V/no2qoQCAGyoaLDs5UFrtDZVGPHNEGh7WtF9WWEk0CuO5cvsyuO2GBtQb36Xk9LCqL91ckap9lY4RLFacd7RqWvMcov2spfZbD9dUNueOj2v3+eNyo7jNuOuAHjg/rrPLHattdJzlHr+RlZ6XVXUOr54d1/kHDpSDbVg5tfb1625/B47rF8wGov2spfYLAFg1YbDs5EBptT1UysSn0YmhYNZWLu01hX7oeHA22XyVzwQzewOM3S6RSyk/amOZ2Xd+RDN9fijaTuHNMctWua/EcFIT7hiGOe8jQ8Ewe894v44ky+dS8Ryi/Z78W9+4yH7Rorv02ItH9fIhP6Rrp+obXCqY/vZawjt9Xztc7dcsrtFxlnv8RlZ6XlblOdx5fLeefMxHvzse1JcfCIbn7z17t768O7gZx/YbLuwuVyqj/f7o733jIvsFAKw6GyY7OVBasbfenCkuLCxofn5Bc/NzunZtTlevvqcnTuZ07PjjvtvSLl++rJ07d/ol4Mb79re/rf379/ulVfDCw9px5oBe67Sw1KnnBQBoq3PnzukLX/iCX1rcpUuXtH37dr/UvH379ukPv/W72rr1Zm3Z0uWmrq4ubd68qRMqlUDneCHyVTg7Dqljqm+del4AgI3lYP89fq4WoRKIuOuxFm+quU469bwAAAgRKgEAANAyrqnEumGvqQQAYCO73tdUHjv6kO6/r6/uNZWESgAAgA3meoRKhr8BAADQMkIlAAAAWkaoBAAAQMsIlQAAAGgZoRIAAAAtI1QCAACgZYRKAAAAtKwtoXL//v3LngAAANC52lapPHfuXNMTAAAAOtvaHf4uZNXTk1XBL94w7TruWsJrBADAhsM1lY1Eg9FqhKRm9zGZViyW1qRfNA1KVyxHFZTtiSnWzH6X+RwK2R5zHmbffurJ1tmS8AgAADxCZSPxjKamMor7xZY1u7/eUU0MjelRH+IK2UeliVH1uqUqhXHlNGT+5TS+VLJbxvOxgTKRSylfLKroprxSs+O14XG1XyMAALBmrY9QaStmpapapKpX0W4mX1WrrML1yOU3X3XLpm2b2UepCldQdnBY09PDSpj+PU/+rdv1uOsXTGl7QNc/rbStHLo2X0WsWB9W9Wz1sWr7iN7RCSWHB5WdzGrQhLvDdROl2eV4Tkod1kByWrlSqgz2XaosutfAPMez5eNXPP/SOYUmdWJYGjkVDYtxZUbNcsPXyHDH8ftMmNfLbQcAANaTZ8ef93O11kGoNCHKhJjkRFBVy4/MqM+ltMr2Yn5E3cEGimemfAXOTBNJDZ/wqc4Ex9kB2x6tDJpAdcps2z3iKndThz4c6We3H9LYoz5YTc9ozynf1jcohfPheseGzT4pPC8zjdaExl4dHpGG+3JKVYS7qIJcpuyPq3dgSNO5sJLYq1HzXM2TMq+ADcRmH/kpZXa4lS78DQ4nzeGDY08kZ5X3q5zCRc10p2R2W1/d16jxaw0AANaPg/33+Llaaz9UuhA0UqrmxftT6h47rcmq9grRqlrfmDRzMQhkjfpXi/ZL7CkHqDCM2bbovFvpuSHrpY8T35X0cw24/fhj9A5oaDoyBB7P6JQN17GEcqlTykQDYnyXkhoz64KKbu9og6F1p1xtLVU0671Gi73WAABgQ1i/11TmZ+sPwdpAmbDVu06uqk0qbYuZtoo6WD08HbBD3+GQfCzWZ2JidAh8sVDaq1FXpRzQabdt1U1ANnSWAmpcmSkqjwAAYGlrP1S6EDSscATbha2hAfVWV++iIsO7rn8wu7jpqmHilYr3K6Xy+dZTujmn97BG6va1Q9/TGooModth9vIQuA+lRX9tZvQ1MKE67RpsuMxrpHtGFyteIz/03iDM1lURRJfxmgIAgHVjHVQqg2sIZ/qCYdqEvV7QXaRo2m2lL+GHb8ObR+IZHUmGFb6YBmeTS1fh7DZDdsi4fKPOygXXaIbna6eKG3Um0+7O62AoOexbVU2sN4ReCtEmUMZsorTD2uFrENneBEDT4I9dZ3jcsNec5lO50mtkXzul+htc22lVvtZNvaYAAGBdib315kxxYWFB8/MLmpuf07Vrc7p69T09cTKnY8cf992WdvnyZe3cudMvLc7+2cXl/KWc5favy37/4+kBFWvvigEAANhQLl26pO3bt/ul5h07+pDuv69PW7ferC1butzU1dWlzZs3ta9SGf273ktNKzUZ+dqfoHhHoAQAALge2lKpBAAAQPusq0olAAAA1g9CJQAAAFpGqAQAAEDLCJUAAABoGaESAAAALSNUAgAAoGWESgAAALSM76nEuvGd73zHzwEAsDF97nOf83OLux7fU0moxLphQ+Utt9zilwAA2FjefffdtoZKhr8BAADQlGfHn/dztdoSKuv9fe+lJgAAALTXwf57/FyttlUqz5071/QEAACAzrZ2h78LWfX0ZFXwizfM9T5us/ufTCsWi7kpPenb1pp2vYcAAGDVcU1lI9HAsxrhZ1UD1KTSfTMayRdVLBY1mlhq3wVle0wAbeb4yzzPQranFG7t1JOtsyXhEQCAdY9Q2Ug8o6mpjOJ+sWWrub/CRc0oqV3N7qwwrpyGzL+cxpdKdss4TxsoE7mU8ibY2nBbLOaVmh2vDY+r/Vo268qszjz9tM7MXvENhm07M6tIy+qJ7vt6HgcAgA60PkKlrYSVqmVplUaDK9rN5KtlldW1Hrnimq+mZdO2zeyjVF0rKDs4rOnpYSVM/54n/9btetz1CyY3/Oz6p5W2FUHX5quDFevDat2k0n7b0vp6Ks7fn6fdNmHOR2Pqs+09X9Uj0fOrUyksjOek1GENJKeVK6XK4BxK/d2xzDHOls+z4nUqnXtoUieGpZFT0bAYV2bULPvnWvtaGtHn5J7Hdbbtdt36+vcUzZXXzbY9OnBgj7b5RQAAWvGTn/zEz9VabF27rINQGYSs5ERQLcuPzKjPpbTK9mJ+RN3BBopnpnxlzUwTSQ2f8KnOBLPZAds+qt6gxTBB6ZTZtnvEVeSmDn040s9uP6SxR31gmp7RnlO+rW9QCufD9Y4Nm31SeF5mGi0fLMKe/6yO+D7FfEq5QbufXo3a5+LPpzj1NX09en6Z6npgQS5T9sfVOzCk6VxYSQz2Y568OZINzjml8lPK7HArXfgbHE6a0wyOP5GcVd6vcmy1tDsls9v66r6Wjd+T62eb9uy9VRdm3/DLEb6S+bSbXlJNj+pqY7jsH2dfCrd9Wi/ZjUv9r2j2exdMvwulSumV2TOlvk9TwQQALMF+h/ibb76pt956y7eU2Ta7zvbpJGs/VLpwM6LDPrnE+1PqHjutyar2CtFqWd+YNHMxCFqN+leL9kvsKQejMGTZtui8W+m5oegmjuOGuH01MqzqTVcFu2a44/lz6R3Q0HRkCDye0SkbwmMJ5VKnVJFH47uUdMcPKr+9o9FwWK1clS1VNOu9lou9J9fTbZ8278F0EPxK3tBLZy7o1u4v6otf/KIO7H1H05UdFmcC45WPBNt+sft2vX4hGhRNkP3MXm3btlcH7L5ve0Pfu3Crum1fM3XfekXv+p4AANSzefNmffSjH9Xbb79dESztvG2z62yfTrJ+r6nMz9YfWrWBMmGrcjeyWrZCJoCVr1e002LBrj479B0OjcdifSYmRofAbXZM+rlqvRp1xxzQabdt5LICy4bOUkCNKzPV2a/lbXv26p1o8LtyRe+Y0LfntmBx2223a9vrf11brWwksq1u2bb4kPe2bbpVr2vaV0Nv+/SnFW4KAEAj1cGykwOltfZDpQs3wwpHsF2IGhpQb3VVLioybOv6B7OLW0mVsJ54v1Iqn29DVc9rSXXPzw59T2soMtRuh+PLQ+CTSruR+Aklhwf9NZueCd9p12DDZV4j3TO6WPFa9uqwHT13Q/JNqgiiy3jtV8O2PfrM7a+r3ij49XebPu2qlB/RX7sh8DpD7QAA1BENlp0cKK11UKkMrg2c6QuGXxP2OkB3kaJpt9dLJvywbHhTSDyjI8mwchfT4Gxy6eqa3WYoGIoOb9RZueAazfB87VT/Rp3K5+WmmptlvOj5RZNhvaH2Utg2gTJmE6WtfoavVaQaaQKgafDHrjM8bthrU/OpXOm1tK+xUv2RG3eqVb4nTb32q2jbnr3ShQtBtdJWD69cKIXMK2+8riu3f6S2gnilPFTt+vj5poTbXpnVS+5OIRsuD2jvtnfsKgAAmhIGy04OlFbsrTdnivZCz/n5Bc3Nz+natTldvfqenjiZ07Hjj/tuS7t8+bJ27tzplxZn/+zicv5SznL712W/LPz0gIr174rBOvCd73xHt9xyi18y7I0z35M+E70j+42X9PSFbcFd2u7GGh8ydbu6v1g7LG1vsDlzIeix7fbbpXe26TOfkb4X3W94nKr2N156WtOvm+32/oJuvfCXMrPOtr0HdGAP94gDAFbXu+++q8997nN+aXGXLl3S9u3b/VLzjh19SPff16etW2/Wli1dburq6jJhd1P7QuVyrSRUTqZjsvfhBIY0sYJrErF21IRKAAA2kA0ZKoHrgVAJANjI2h0q1+/d3wAAALhhCJUAAABoGcPfWDfs8DcAABvZ9R7+3rdvn/7wW7/LNZUAAADgmkoAAAB0KEIlAAAAWkaoBAAAQMsIlQAAAGgZoRIAAAAt4+5vrBt8pRAAYKPjzzQCq4A/0wgA2Mj4M40AAABY89oSKvfv37/sCQAAAJ2rbZXKc+fONT0BAACgs63d4e9CVj09WRX84g3TruM20mnnsxrW43MCAGCd45rKRqLBZjVCzkr30cqxl9y2oGxPTLFm9r/M8yhkexSLmX37qSdbZ8vVeF0BAEBHIFQ2Es9oaiqjuF9s2Ur3t9rnEVUYV05D5l9O40slu2Wchw2UiVxK+WJRRTfllZodrw2P1/O5WVdmdebpp3Vm9opvMGzbmVlFWlZPdN/X8zgAAHSg9REqbcWrVBVLa9I3V7abyVfFKqtoPXJFNF81y6Ztm9lHqYpWUHZwWNPTw0qY/j1P/q3b9bjrF0xpe0DXP620rfy5Nl8FrFgfVuUmlfbbltaHGp6HXxfZLlphrDmf6vOuUyksjOek1GENJKeVK6XK4NxK/d0xzWt0tnweFa9f5BwCkzoxLI2ciobFuDKjZrnZ55Yw5+22WwXbbtetr39P0Vx53WzbowMH9mibXwQAoBU/+clP/Fytxda1yzoIlSYEmRCSnAiqYvmRGfW5VFXZXsyPqDvYQPHMlK+gmWkiqeETPtWZADY7YNtH1Ru0GCYQnTLbdo+4ytvUoQ9H+tnthzT2qA9G0zPac8q39Q1K4Xy43rFhs08Kz8tMo+WDBeqeR+PnU/98qs47U10PLMhlyv64egeGNJ0LK4m9GjX7Ni+KOaINpjml8lPK7HArXfgbHE6a0w+ON5GcVd6vcgoXNdOdktltfct9bi3bpj17b9WF2Tf8coSvZD7tppdU06O62hgu+8fZl8Jtn9ZLduNS/yua/d4F0+9CqVJ6ZfZMqe/TVDABAEuw3yH+5ptv6q233vItZbbNrrN9OsnaD5UuxIzosE8o8f6UusdOa7KqvUK0KtY3Js1cDAJVo/7Vov0Se8oBKAxTti0671Z6bsh5iePUO4/Fnk+j81mMOw9/jr0DGpqODIHHMzplw3ksoVzqlCryaHyXkhoz64KKcO9oNBxWK1drSxXN5T631XDbp81rMh0Ev5I39NKZC7q1+4v64he/qAN739F0ZYfFmcB45SPBtl/svl2vX4gGRRNkP7NX27bt1QG779ve0Pcu3Kpu29dM3bde0bu+JwAA9WzevFkf/ehH9fbbb1cESztv2+w626eTrN9rKvOz9YdQbaBM2Orb9aiKXUeNns8K2aHvcGg8FuszMTE6BG6zY9LPVevVqKtSDui02zZyuYFlQ2cpoMaVmeqM1/i2PXv1TjT4Xbmid0zo23NbsLjtttu17fW/rq1WNhLZVrdsW3zIe9s23arXNe2robd9+tMKNwUAoJHqYNkJgfLZ8ef9XK21HypdiBlWOILtwtLQgHqrq29RkeFZ1z+YXdx01TDvSsX7lVL5fJu22PNZTN3ztkPf0xqKDMHbYfPyEPik0m6EfkLJ4cHgmtOQCeVp12DDZV4j3TO6WHFOvTpsR88Ho0P+S6gIost4T5Zj2x595vbXVW8U/Pq7TZ92VcqP6K/dEHidoXYAAOqIBstOqFAe7L/Hz9VaB5XK4BrAmb5gmDVhr/dzFymadnu9ZMIPv4Y3f8QzOpIMK3QxDc4ml66i2W2G7JBv+UadlQuudQzP104VN+o01OD5LCZ63tFkWG8IvhRaTaCM2URph7XDY0aqkSYAmgZ/7nWGxw17zWo+lSu9xvZcleo3z7yRyufW1HuyAtv27JUuXAiqlbZ6eOVCKWReeeN1Xbn9I7UVxCvloWrXx883Jdz2yqxecncK2XB5QHu3vWNXAQDQlDBYtjtQLiX21pszRXuh5/z8gubm53Tt2pyuXn1PT5zM6djxx323pV2+fFk7d+70S4uzf3ZxOX8pZ7n965pMK3Z6QMWau2LWqPX2fFbBd77zHd1yyy1+ybA3znxP+kz0juw3XtLTF7YFd2m7G2t8yNTt6v5i7bC0vcHmzIWgx7bbb5fe2abPfEb6XnS/4XGq2t946WlNv2622/sLuvXCX8rMOtv2HtCBPdwjDgBYXe+++64+97nP+aXFXbp0Sdu3b/dLzTt29CHdf1+ftm69WVu2dLmpq6vLhN1N7QuVy7WSUDmZjsnehxMY0kTFHcdrz3p7PqutJlQCALCBbMhQCVwPhEoAwEbW7lC5fu/+BgAAwA1DqAQAAEDLGP7GumGHvwEA2Mi4phIAAAA3DNdUAgAAoCMRKgEAANAyQiUAAABaRqgEAABAywiVAAAAaBmhEgAAAC0jVAIAAKBlhEoAAAC0jFAJAACApjw7/ryfq0WoBAAAQFMO9t/j52qt6p9pBAAAwNrQsX/7GwAAAOsbf/sbAAAA1xWhEgAAAC0jVAIAAKBlhEoAAAC0jFAJAACAlhEqAQAA0DJCJQAAAFpGqAQAAEDLCJUAAABoGaESAAAALSNUAgAAoGWESgAAALQs9tabM8WFhQXNzy9obn5O167N6erV9/TEyZyOHX/cd1u5D/2bv/FzAKq9/a9/zs/VOnv2rJ8DEHX33Xf7uVr83ACNLfaz06xjRx/S/ff1aevWm7VlS5eburq6tHnzJkIl0E5Lhcr9+/f7JQDWuXPnlgyV/NwAtZb62WlWR4TK137zZ9wjAGnH7/+DeyRUAstDqARWZrVC5b59+/SH3/rduqGSayoBAADQlIP99/i5WoRKAAAAtIxQCQAAgJYRKgFgJV49qXvvPalX/SKAVcLP1ppFqFynXj15r3bs2FGa7j3pfzyrf1hfeNitf/gFvwxsCK/q5L3mZ4MPLmBp/nOiNPGBgQYIleuQDZR3jvfrxdde02tuelK7j99ZDpYhGzAPvayjL76mx+7ybcBG8OpZjesB829cZ0mVQEOuQHFIerL0efKantQZEStRD6Fy3XlBo8eloyMP6g7fIt2lx148Ko2fLVdlbKC8c1z9Lz6jB8sdgQ3h1bPjUn9aB3afNz8W/qfCVfEf1sO2gukrMq4g06i9JKh6ltte0MM77lX173DA2vOq7I/K0RcfM58iZXc9FixXjoj5/+b9aNjJh+v9vNifjap227/Uxs/NWkeoXG9efUUv7+vX3dVB8Y6Pa/f5gn7kFsY1TKDEhhV8UPabH5K7Djyg89Ffts6/rPiIr8g8+YCeOvRwUJFp1O7coQe/bNrO+JYXzuipB77MzxbWPlvRP79bH2/w3/IdDz5Tql6+9uRuHR/1PwPnj6twIPLz8k17mYn95cuVPEvbPHaXCZl3FvTlcB8v9mt8mEtS1jJC5UZ03nygHjX/A8APLzYiN/Ttf/G664AeOB8ZAo/+QmbX6WW98tdmvlF7yLY9FQwJvnDmKT1wgOtJsE7si+tjfrZGtMp46Cnp5VeCz5R9R5UOfwQ+Ftc+++h+7iLtli2C6CkdCvdx53GdLxU/sBYRKtcbV5Gsc52Yq2D6/3GwH5APPqYX+8d1Z+U4HrDu2aHv8+eP6073QXbIfKRFhsBX7C4deOApnXnhBZ156gGRKbEuNPo8sWygdCNeYZXxaBAel8sE0PL1/3aqHGrH2kKoXHfuUvqoqqqQdojhuB3vi1xnaYcuRnT05UO1N/AA65Yd+j6vByJDcHZ4rmIIPGSHse0vYB/xy6EG7XeZH7yXDx3Sy0fTfChinfCfJ3dGL/cwPwIP++VIBd/9shbM1nfH3erXcYUj5I4LrVVtWNMIleuQvc7FVSHDIYXg1j09U3OR1x168JkGd4YD61G9IbhwCNwOZ5cqmGayPzbP+BveGrVH2Q/NffvctZrAeuE+T46+XB6iNtMhHdBddzyoL+8u/1wMF3YvUak0nzcj9hev8n4efiG4iTTaxtd8rW2xt96cKS4sLGh+fkFz83O6dm1OV6++pydO5nTs+OO+28p96N/8jXt87Td/xj0CkHb8/j+4x7f/9c+5x3rOnj2r/fv3+yVcd3Y4b1gaqQ6Mjdqr2e/y+2ZcLy7VDy05d+6c7r77br9Ui58boL6lfnaadezoQ7r/vj5t3XqztmzpclNXV5c2b95EpRIAVoO7QefLBEoAGxehEgCsOx7UM3WHtRu0V7nrMf6IAICNjVAJAACAlt2wayoB1OKaSmB5uKYSWJnVuqZy3759+sNv/W7dayoJlUAbLRUqAdRaKlQCqO9636hz3UMlAAAA1gfu/gYAAMB1RagEAABAywiVAAAAaBmhEgAAAC2rGyqLxaKfAwAAAOqzmTHMjTWhkkAJAACARsIgGc2Mdn4TIRIAAACt2hSLxfwsAAAAsDI1w9+ETAAAADRis2I4hex83Rt1CJYAAABYSjRculAZbQAAAAAasZExzI5hfrSPda+prNcGAAAABGGyNlhGKpW1KwEAAICoTZs2VWRGGxvtY0Wl0jX4jgAAAEC1IEiWw6SbzL9SpdKGyU2xIFBu2kSoBAAAQC2bGTdv3uymUqi0+TG64BpMoLSdAQAAgKhnx583YXKTy4ql3OiLkrErf/fDov2rOgsLC5qfnzfTgq7NzSn7zSf95gAAAEDgXz6YUlfXTWbq0k03bdZNm29yQbMUKt9///1SqJxfmNfcnJ3mTNh83wVO+2j72CnsHzyW//6jnQAAALA2VY9eB49BZdIOd9sQaQPlTTeF02Zt3mSHwk2ofPfvf1gMg2EQHoMAaYOlDZh22QbIMFQGQdLOB9vYeYtQCQAAsLaFgdKKDnHbQBkEyzBcBtXJMFC6vj9+a7YUKoOwWK5MLrxfGSjtFPQL+hIqAQAA1o/6oTIIk+V5HyRjwXx4P07sJ2+/bEKlDYgqBcWwOhmGRxsu64XJMEia/3OPAAAAWDui+S0Mk0GwLAdMGxjLAdMHy01B5TJcduv/4Z2LZn9hSCwHS/sYTJEgWQzXhWGydgIAAMDaFAbJ6ql0fWXp6yerAqXt99Mrl0wWLAdHmwujwTJ8jAbJMFwGUznlho8AAABYe2w4DB/tbPBYDpNuPhzudvORx6vv5k0WjIbKIChGlyvnwz5msv/MoxU+AgAAYG2I5jcbDqsf3T/76IJjdD4aMu289P8D9V0ak6NBpK4AAAAASUVORK5CYII=;" vertex="1" parent="1">
          <mxGeometry x="220" y="188" width="661" height="474" as="geometry" />
        </mxCell>
        <mxCell id="AgqisVmrNdWKEEYQ5JYg-2" value="Configure Grid Aesthetics and Number Notation" style="shape=callout;whiteSpace=wrap;html=1;perimeter=calloutPerimeter;direction=south;size=30;position=0.42;fillColor=#f8cecc;strokeColor=#b85450;" vertex="1" parent="1">
          <mxGeometry x="860" y="435" width="190" height="60" as="geometry" />
        </mxCell>
        <mxCell id="AgqisVmrNdWKEEYQ5JYg-3" value="" style="rounded=0;whiteSpace=wrap;html=1;fillColor=none;strokeWidth=3;strokeColor=#FF0000;" vertex="1" parent="1">
          <mxGeometry x="240" y="410" width="620" height="110" as="geometry" />
        </mxCell>
        <mxCell id="AgqisVmrNdWKEEYQ5JYg-4" value="" style="rounded=0;whiteSpace=wrap;html=1;fillColor=none;strokeWidth=3;strokeColor=#FF0000;" vertex="1" parent="1">
          <mxGeometry x="240" y="520" width="620" height="80" as="geometry" />
        </mxCell>
        <mxCell id="AgqisVmrNdWKEEYQ5JYg-5" value="Configure Axis Scaling" style="shape=callout;whiteSpace=wrap;html=1;perimeter=calloutPerimeter;direction=south;size=30;position=0.33;fillColor=#f8cecc;strokeColor=#b85450;" vertex="1" parent="1">
          <mxGeometry x="860" y="530" width="190" height="60" as="geometry" />
        </mxCell>
        <mxCell id="AgqisVmrNdWKEEYQ5JYg-6" value="" style="rounded=0;whiteSpace=wrap;html=1;fillColor=none;strokeWidth=3;strokeColor=#FF0000;" vertex="1" parent="1">
          <mxGeometry x="240" y="260" width="620" height="130" as="geometry" />
        </mxCell>
        <mxCell id="AgqisVmrNdWKEEYQ5JYg-7" value="Edit labels for each axis. Note that special characters are supported!" style="shape=callout;whiteSpace=wrap;html=1;perimeter=calloutPerimeter;direction=south;size=30;position=0.42;fillColor=#f8cecc;strokeColor=#b85450;" vertex="1" parent="1">
          <mxGeometry x="860" y="290" width="190" height="60" as="geometry" />
        </mxCell>
      </root>
    </mxGraphModel>
  </diagram>
</mxfile>
